<?xml version="1.0" encoding="utf-8"?>
<!-- Generator: Adobe Illustrator 22.1.0, SVG Export Plug-In . SVG Version: 6.00 Build 0)  -->
<svg version="1.1" id="katman_1" xmlns="http://www.w3.org/2000/svg" xmlns:xlink="http://www.w3.org/1999/xlink" x="0px" y="0px"
	 viewBox="0 0 204 67" style="enable-background:new 0 0 204 67;" xml:space="preserve">
<style type="text/css">
	.st0{fill:#B8BFCC;}
	.st1{fill:#3FB26E;}
	.st2{fill:#535D73;}
</style>
<g>
	<path class="st0" d="M112.1,57h-3.2c-1.1,0-1.9,1-1.9,2.1v0.2h1.9c0-0.5,0.4-0.8,0.9-0.8h1.3c0.5,0,1,0.5,0.9,1v0.6h0l0,0v0h-3.2
		H107v1.9c0,1.1,0.8,2,1.9,2.1h3.2c0.3,0,0.6-0.1,0.9-0.3V64h1v-0.3v-1.8v-2.9C114,58,113.2,57,112.1,57z M112.1,61.5
		c0,0.5-0.4,1-0.9,1h-1.3c-0.5,0-1-0.5-0.9-1v-0.4h3.2V61.5z"/>
	<rect x="124" y="56.9" class="st0" width="2" height="7.1"/>
	<rect x="124" y="54" class="st0" width="2" height="1.8"/>
	<path class="st1" d="M105,35c0,2.2-1.8,4-4,4c-2.2,0-4-1.8-4-4v-2V23h16v-9H97V6H86v8h-5v9h5v10v6c0,4.4,3.6,8,8,8h12
		c4.4,0,8-3.6,8-8v-6h-9V35z"/>
	<rect x="117" y="14" class="st2" width="10" height="32"/>
	<path class="st1" d="M29,13H18c-4.4,0-8,3.6-8,8V0H0v46h10v-7c0,4.4,3.6,8,8,8h11c5.5,0,10-4.5,10-10V23C39,17.5,34.5,13,29,13z
		 M29,32c0,3.3-2.7,6-6,6h-7c-3.3,0-6-2.7-6-6v-4c0-3.3,2.7-6,6-6h7c3.3,0,6,2.7,6,6V32z"/>
	<path class="st0" d="M103.9,56.8h-2.3c-0.9,0-1.7,0.8-1.7,1.7V54h-2.1v9.8h2.1v-1.5c0,0.9,0.8,1.7,1.7,1.7h2.3c1.2,0,2.1-1,2.1-2.1
		v-3C106,57.7,105,56.8,103.9,56.8z M103.9,60.8c0,0.7-0.6,1.3-1.3,1.3h-1.5c-0.7,0-1.3-0.6-1.3-1.3V60c0-0.7,0.6-1.3,1.3-1.3h1.5
		c0.7,0,1.3,0.6,1.3,1.3V60.8z"/>
	<path class="st0" d="M199,58.5c0-0.9-0.8-1.7-1.7-1.7H195c-1.2,0-2.1,1-2.1,2.1v3c0,1.2,1,2.1,2.1,2.1h2.3c0.9,0,1.7-0.8,1.7-1.7
		v1.5h2.1V54H199V58.5z M199,60.8c0,0.7-0.6,1.3-1.3,1.3h-1.5c-0.7,0-1.3-0.6-1.3-1.3V60c0-0.7,0.6-1.3,1.3-1.3h1.5
		c0.7,0,1.3,0.6,1.3,1.3V60.8z"/>
	<rect x="117" y="1" class="st2" width="10" height="8"/>
	<path class="st2" d="M139,47h21c4.4,0,8-3.6,8-8v-9c0,0-0.8-4-6-4h-5h-13c-1.7,0-3-1.3-3-3s1.3-3,3-3h10c1.7,0,3,1.3,3,3h11v-2
		c0-4.4-3.6-8-8-8h-21c-4.4,0-8,3.6-8,8v9c0,0,0.4,4,6,4h5h13c1.7,0,3,1.3,3,3s-1.3,3-3,3h-10c-1.7,0-3-1.3-3-3h-11v2
		C131,43.4,134.6,47,139,47z"/>
	<path class="st0" d="M132.7,57.1h-4.2c-0.9,0-1.6,0.7-1.6,1.6v1.8c0,0,0.1,0.8,1.2,0.8h1h2.6c0.3,0,0.6,0.3,0.6,0.6
		s-0.3,0.6-0.6,0.6h-2c-0.3,0-0.6-0.3-0.6-0.6h-2.2v0.4c0,0.9,0.7,1.6,1.6,1.6h4.2c0.9,0,1.6-0.7,1.6-1.6v-1.8c0,0-0.2-0.8-1.2-0.8
		h-1h-2.6c-0.3,0-0.6-0.3-0.6-0.6s0.3-0.6,0.6-0.6h2c0.3,0,0.6,0.3,0.6,0.6h2.2v-0.4C134.3,57.8,133.6,57.1,132.7,57.1z"/>
	<path class="st1" d="M69,13H52c-5.5,0-10,4.5-10,10v14c0,5.5,4.5,10,10,10h17c5.5,0,10-4.5,10-10v-1H69c0,2.8-2.2,4-5,4h-7
		c-2.8,0-5-2.2-5-5v-3h17h10v-9C79,17.5,74.5,13,69,13z M69,27H52v-2c0-2.8,2.2-5,5-5h7c2.8,0,5,2.2,5,5V27z"/>
	<rect x="177" y="54" class="st0" width="2" height="1.8"/>
	<rect x="202" y="56.9" class="st0" width="2" height="7.1"/>
	<rect x="135" y="56.9" class="st0" width="2" height="7.1"/>
	<path class="st0" d="M192,59.1c0-1.1-0.8-2-1.9-2.1h-3.2c-1.1,0-1.9,1-1.9,2.1v0.2h1.9c0-0.5,0.4-0.8,0.9-0.8h1.3
		c0.5,0,1,0.5,0.9,1v0.6h-3.2H185v1.9c0,1.1,0.8,2,1.9,2.1h3.2c0.3,0,0.6-0.1,0.9-0.3l0,0h0c0,0,0,0,0,0V64h1v-0.3h0L192,59.1z
		 M190.1,61.5c0,0.5-0.4,1-0.9,1h-1.3c-0.5,0-1-0.5-0.9-1v-0.4h3.2V61.5z"/>
	<path class="st2" d="M195,33v2c0,2.2-1.8,4-4,4c-2.2,0-4-1.8-4-4v-2V23h16v-9h-16V6h-11v8h-5v9h5v10v6c0,4.4,3.6,8,8,8h12
		c4.4,0,8-3.6,8-8v-6H195z"/>
	<rect x="177" y="56.9" class="st0" width="2" height="7.1"/>
	<rect x="135" y="54" class="st0" width="2" height="1.8"/>
	<path class="st0" d="M165.1,57h-3.2c-1.1,0-1.9,1-1.9,2.1v2.9c0,1.1,0.8,2,1.9,2.1h3.2c1.1,0,1.9-1,1.9-2.1v-0.2h-1.9
		c0,0,0-0.1,0-0.2c0,0.5-0.4,1-0.9,1h-1.3c-0.5,0-1-0.5-0.9-1v-0.6h3.2h1.9v-1.9C167,58,166.2,57,165.1,57z M165.1,59.9h-3.2v-0.4
		c0-0.5,0.4-1,0.9-1h1.3c0.5,0,1,0.5,0.9,1V59.9z"/>
	<path class="st0" d="M155.5,62.1l-1.5-5.1h-2l3.1,7v0.1c0,1.2-2,2.9-2,2.9h3l0.9-3l2.2-7h-2L155.5,62.1z"/>
	<path class="st0" d="M121,57.1h-2c-1.1,0-2,0.9-2,2v0v-5h-2v10h2v-3v-0.3c0-1.1,0.9-2,2-2h0.3c1.1,0,2,0.9,2,2V64h1.7v-4.9
		C123,58,122.1,57.1,121,57.1z"/>
	<path class="st0" d="M144,57.1h-2c-1.1,0-2,0.9-2,2v0v-2h-2v7h2v-3v-0.3c0-1.1,0.9-2,2-2h0.3c1.1,0,2,0.9,2,2V64h1.7v-4.9
		C146,58,145.1,57.1,144,57.1z"/>
	<path class="st0" d="M174,57.1h-2c-1.1,0-2,0.9-2,2v0v-2h-2v7h2v-3v-0.3c0-1.1,0.9-2,2-2h0.3c1.1,0,2,0.9,2,2V64h1.7v-4.9
		C176,58,175.1,57.1,174,57.1z"/>
</g>
</svg>
